<svg width="112" height="59" viewBox="0 0 112 59" fill="none" xmlns="http://www.w3.org/2000/svg">
  <path fill-rule="evenodd" clip-rule="evenodd" d="M52.8808 44.5206C47.8771 52.8794 38.8365 58.4614 28.5124 58.4628C12.7654 58.4628 -0.000761083 45.4782 -0.000183086 29.4621C-0.000183086 26.0644 0.576678 22.802 1.63293 19.7721L12.3343 38.624C15.4989 44.3927 21.5575 48.2933 28.5124 48.2933C35.364 48.2933 41.3468 44.5073 44.5487 38.8784L44.6849 38.6344C45.5606 37.04 46.2152 35.3044 46.6067 33.4688L52.8808 44.5206Z" fill="white"/>
  <path fill-rule="evenodd" clip-rule="evenodd" d="M66.9903 58.4628L58.7608 43.966L64.5334 33.798L72.7635 48.2933L99.9147 0.462708H111.458L78.535 58.4628H66.9903Z" fill="white"/>
  <path fill-rule="evenodd" clip-rule="evenodd" d="M28.5117 0.462708C40.9175 0.462708 51.4708 8.5215 55.3917 19.772L66.3524 0.462708H77.8973L55.6634 39.6315L44.6887 20.2971C41.5236 14.5314 35.4662 10.6307 28.5117 10.6307C19.6378 10.6307 12.2241 16.9818 10.4182 25.4569L4.14223 14.4006C9.14498 6.04316 18.1884 0.462708 28.5117 0.462708Z" fill="white"/>
</svg>
  